<svg width="100" height="100" viewBox="0 0 100 100" fill="none" xmlns="http://www.w3.org/2000/svg">
<circle cx="50" cy="50" r="50" fill="#4FBCA9"/>
<path d="M35.0002 35H65.0002C65.4422 35 65.8661 35.1756 66.1787 35.4882C66.4912 35.8007 66.6668 36.2246 66.6668 36.6667V63.3333C66.6668 63.7754 66.4912 64.1993 66.1787 64.5118C65.8661 64.8244 65.4422 65 65.0002 65H35.0002C34.5581 65 34.1342 64.8244 33.8217 64.5118C33.5091 64.1993 33.3335 63.7754 33.3335 63.3333V36.6667C33.3335 36.2246 33.5091 35.8007 33.8217 35.4882C34.1342 35.1756 34.5581 35 35.0002 35ZM50.1002 49.4717L39.4135 40.3967L37.2552 42.9367L50.1218 53.8617L62.7568 42.9283L60.5768 40.4067L50.1018 49.4717H50.1002Z" fill="white"/>
</svg>
