<svg width="56" height="56" viewBox="0 0 56 56" fill="none" xmlns="http://www.w3.org/2000/svg">
<g clip-path="url(#clip0_670_1222)">
<path d="M44.3335 8.16669H11.6668C10.3835 8.16669 9.3335 9.21669 9.3335 10.5V17.5C9.3335 18.7834 10.3835 19.8334 11.6668 19.8334H44.3335C45.6168 19.8334 46.6668 18.7834 46.6668 17.5V10.5C46.6668 9.21669 45.6168 8.16669 44.3335 8.16669ZM44.3335 22.1667H11.6668C10.3835 22.1667 9.3335 23.2167 9.3335 24.5V31.5C9.3335 32.7834 10.3835 33.8334 11.6668 33.8334H44.3335C45.6168 33.8334 46.6668 32.7834 46.6668 31.5V24.5C46.6668 23.2167 45.6168 22.1667 44.3335 22.1667ZM44.3335 36.1667H11.6668C10.3835 36.1667 9.3335 37.2167 9.3335 38.5V45.5C9.3335 46.7834 10.3835 47.8334 11.6668 47.8334H44.3335C45.6168 47.8334 46.6668 46.7834 46.6668 45.5V38.5C46.6668 37.2167 45.6168 36.1667 44.3335 36.1667Z" fill="white"/>
<path d="M44.3332 56C50.7765 56 55.9998 50.7767 55.9998 44.3334C55.9998 37.89 50.7765 32.6667 44.3332 32.6667C37.8898 32.6667 32.6665 37.89 32.6665 44.3334C32.6665 50.7767 37.8898 56 44.3332 56Z" fill="#21A38C"/>
<path d="M49.5835 38.85L42.9335 45.5L39.7835 42.35L37.3335 44.9166L42.9335 50.5166L52.0335 41.4166L49.5835 38.85Z" fill="white"/>
</g>
<defs>
<clipPath id="clip0_670_1222">
<rect width="56" height="56" fill="white"/>
</clipPath>
</defs>
</svg>
