<svg width="56" height="56" viewBox="0 0 56 56" fill="none" xmlns="http://www.w3.org/2000/svg">
<g clip-path="url(#clip0_670_1228)">
<path d="M51.8957 56L34.5963 38.7007C30.7871 41.5457 26.1627 43.088 21.4083 43.099H21.4037L21.1517 43.1013C15.5419 43.1013 10.1619 40.8728 6.19518 36.9061C2.22847 32.9394 0 27.5594 0 21.9496L0.00233333 21.6837V21.6977C0.00233333 15.9437 2.28808 10.4254 6.35675 6.35674C10.4254 2.28807 15.9437 0.00231934 21.6977 0.00231934C27.4516 0.00231934 32.9699 2.28807 37.0386 6.35674C41.1072 10.4254 43.393 15.9437 43.393 21.6977C43.3328 26.4725 41.7792 31.1086 38.9503 34.9557L38.9947 34.8927L56.294 52.192L51.8957 56ZM21.6977 5.86365C17.5207 5.7286 13.4609 7.25721 10.4103 10.1137C7.35967 12.9701 5.56774 16.9207 5.4282 21.0976C5.28866 25.2744 6.81292 29.3358 9.66609 32.3895C12.5193 35.4432 16.468 37.2394 20.6447 37.3834C24.8213 37.5274 28.8844 36.0075 31.9411 33.1576C34.9979 30.3077 36.7983 26.361 36.9468 22.1844C37.0953 18.0079 35.5798 13.9432 32.7332 10.8834C29.8865 7.82361 25.9417 6.01898 21.7653 5.86599H21.6953H21.7L21.6977 5.86365Z" fill="white"/>
</g>
<defs>
<clipPath id="clip0_670_1228">
<rect width="56" height="56" fill="white"/>
</clipPath>
</defs>
</svg>
