<svg width="56" height="56" viewBox="0 0 56 56" fill="none" xmlns="http://www.w3.org/2000/svg">
<path d="M51.3335 4.66663H4.66683C4.04799 4.66663 3.4545 4.91246 3.01691 5.35004C2.57933 5.78763 2.3335 6.38112 2.3335 6.99996V25.6666C2.3335 26.2855 2.57933 26.879 3.01691 27.3165C3.4545 27.7541 4.04799 28 4.66683 28H11.6668V49C11.6668 49.6188 11.9127 50.2123 12.3502 50.6499C12.7878 51.0875 13.3813 51.3333 14.0002 51.3333H42.0002C42.619 51.3333 43.2125 51.0875 43.6501 50.6499C44.0877 50.2123 44.3335 49.6188 44.3335 49V28H51.3335C51.9523 28 52.5458 27.7541 52.9834 27.3165C53.421 26.879 53.6668 26.2855 53.6668 25.6666V6.99996C53.6668 6.38112 53.421 5.78763 52.9834 5.35004C52.5458 4.91246 51.9523 4.66663 51.3335 4.66663ZM16.3335 46.6666V42C17.5712 42 18.7582 42.4916 19.6333 43.3668C20.5085 44.242 21.0002 45.4289 21.0002 46.6666H16.3335ZM39.6668 46.6666H35.0002C35.0002 45.4289 35.4918 44.242 36.367 43.3668C37.2422 42.4916 38.4291 42 39.6668 42V46.6666ZM39.6668 37.3333C37.1915 37.3333 34.8175 38.3166 33.0672 40.067C31.3168 41.8173 30.3335 44.1913 30.3335 46.6666H25.6668C25.6668 44.1913 24.6835 41.8173 22.9332 40.067C21.1828 38.3166 18.8088 37.3333 16.3335 37.3333V18.6666H39.6668V37.3333ZM49.0002 23.3333H44.3335V16.3333C44.3335 15.7145 44.0877 15.121 43.6501 14.6834C43.2125 14.2458 42.619 14 42.0002 14H14.0002C13.3813 14 12.7878 14.2458 12.3502 14.6834C11.9127 15.121 11.6668 15.7145 11.6668 16.3333V23.3333H7.00016V9.33329H49.0002V23.3333ZM28.0002 35C29.3846 35 30.738 34.5894 31.8892 33.8202C33.0403 33.0511 33.9375 31.9578 34.4673 30.6787C34.9971 29.3997 35.1358 27.9922 34.8657 26.6343C34.5956 25.2765 33.9289 24.0292 32.9499 23.0502C31.9709 22.0712 30.7237 21.4046 29.3658 21.1345C28.0079 20.8644 26.6005 21.003 25.3214 21.5328C24.0423 22.0626 22.949 22.9598 22.1799 24.111C21.4107 25.2621 21.0002 26.6155 21.0002 28C21.0002 29.8565 21.7377 31.637 23.0504 32.9497C24.3632 34.2625 26.1436 35 28.0002 35ZM28.0002 25.6666C28.4617 25.6666 28.9128 25.8035 29.2965 26.0599C29.6802 26.3163 29.9793 26.6807 30.1559 27.107C30.3325 27.5334 30.3787 28.0025 30.2887 28.4552C30.1986 28.9078 29.9764 29.3236 29.6501 29.6499C29.3238 29.9762 28.908 30.1984 28.4554 30.2885C28.0028 30.3785 27.5336 30.3323 27.1072 30.1557C26.6809 29.9791 26.3165 29.68 26.0601 29.2963C25.8037 28.9126 25.6668 28.4614 25.6668 28C25.6668 27.3811 25.9127 26.7876 26.3502 26.35C26.7878 25.9125 27.3813 25.6666 28.0002 25.6666Z" fill="white"/>
</svg>
