<svg width="56" height="56" viewBox="0 0 56 56" fill="none" xmlns="http://www.w3.org/2000/svg">
<path d="M38.5 47.565L33.9675 43.0325L31.5 45.5L38.5 52.5L52.5 38.5L50.0325 36.0325L38.5 47.565Z" fill="white"/>
<path d="M43.75 8.75H38.5V7C38.4972 6.07259 38.1276 5.18396 37.4718 4.52819C36.816 3.87241 35.9274 3.50277 35 3.5H21C20.0726 3.50277 19.184 3.87241 18.5282 4.52819C17.8724 5.18396 17.5028 6.07259 17.5 7V8.75H12.25C11.3226 8.75277 10.434 9.12241 9.77819 9.77819C9.12241 10.434 8.75277 11.3226 8.75 12.25V49C8.75277 49.9274 9.12241 50.816 9.77819 51.4718C10.434 52.1276 11.3226 52.4972 12.25 52.5H28V49H12.25V12.25H17.5V17.5H38.5V12.25H43.75V31.5H47.25V12.25C47.2472 11.3226 46.8776 10.434 46.2218 9.77819C45.566 9.12241 44.6774 8.75277 43.75 8.75ZM35 14H21V7H35V14Z" fill="white"/>
</svg>
